Coordinates
version=1
nRows=17
nColumns=36
inDegrees=yes

Units are S.I. units (second, meters, Newtons, ...)
If the header above contains a line with 'inDegrees', this indicates whether rotational values are in degrees (yes) or radians (no).

endheader
time	pelvis_tilt	pelvis_list	pelvis_rotation	pelvis_tx	pelvis_ty	pelvis_tz	hip_flexion_r	hip_adduction_r	hip_rotation_r	knee_angle_r	knee_angle_r_beta	ankle_angle_r	subtalar_angle_r	mtp_angle_r	hip_flexion_l	hip_adduction_l	hip_rotation_l	knee_angle_l	knee_angle_l_beta	ankle_angle_l	subtalar_angle_l	mtp_angle_l	lumbar_extension	lumbar_bending	lumbar_rotation	arm_flex_r	arm_add_r	arm_rot_r	elbow_flex_r	pro_sup_r	arm_flex_l	arm_add_l	arm_rot_l	elbow_flex_l	pro_sup_l
      1.30000000	     -7.09380959	      6.62178791	     -0.09057622	     -0.46497027	      1.18167315	     -0.58508759	     28.80698133	     -9.51147935	     -3.77669853	      8.31451390	      0.14511564	    -38.31245742	     -4.73410484	     -7.27142274	     38.13024647	      0.70403867	     -5.89499265	     29.17044294	      0.50912027	    -26.19562461	     -8.85562124	     -7.27142274	    -21.47006044	     -4.71043419	     -4.57175839	    117.56924054	    -55.88189298	     78.75449477	     94.10737623	     86.12469390	    149.90860124	    -78.37377815	    139.36881552	     78.90999113	    104.42304322
      1.31000000	     -6.95839005	      6.57107642	     -0.37199853	     -0.45148629	      1.16239282	     -0.58472372	     28.87535594	     -9.47732408	     -4.11875926	      8.06568446	      0.14077275	    -38.87204829	     -4.18776473	     -7.27762557	     37.77332198	      0.47869355	     -5.75478384	     27.18616732	      0.47448813	    -28.51823458	     -8.01947878	     -7.27762557	    -21.34555771	     -4.76296461	     -2.27276879	    125.64648417	    -59.85362249	     87.60106649	     97.30800607	     87.15399979	    154.26383897	    -77.33949916	    145.43381989	     81.55527012	    105.87367444
      1.32000000	     -6.77974439	      6.55504337	     -0.70071632	     -0.43795024	      1.14208358	     -0.58418920	     28.96247669	     -9.45194493	     -4.35963447	      8.08109670	      0.14104174	    -39.30956255	     -3.73278652	     -7.35106572	     37.40324811	      0.23342801	     -5.63647180	     25.44921490	      0.44417259	    -30.57561207	     -7.01886009	     -7.35106572	    -21.42740307	     -4.90430085	     -1.03983394	    134.08430277	    -62.27572390	     96.64850125	    100.56560560	     81.15247441	    167.95876877	    -76.39814692	    161.35634717	     86.17787655	    101.75712551
      1.33000000	     -6.60620409	      6.47971186	     -1.03042264	     -0.42431836	      1.12071898	     -0.58371922	     29.10632496	     -9.37888132	     -4.50651839	      8.39431461	      0.14650843	    -39.53014186	     -3.16344922	     -7.35801931	     37.08769868	     -0.05002435	     -5.35479541	     24.01605414	      0.41915922	    -31.98170400	     -5.96010162	     -7.35801931	    -21.42833388	     -5.01625408	      1.08887975	    146.21629509	    -65.04178824	    109.14153810	    103.71644320	     82.53218305	    173.66692496	    -74.78635555	    168.58838094	     89.47478509	    103.71519576
      1.34000000	     -6.42873810	      6.31675115	     -1.34642218	     -0.41066388	      1.09840933	     -0.58353078	     29.28514878	     -9.21195872	     -4.37955199	      8.96246964	      0.15642460	    -39.99261142	     -2.89071479	     -7.41070328	     36.81993600	     -0.33553498	     -4.83257945	     22.85534448	      0.39890101	    -33.11178070	     -5.53126685	     -7.41070328	    -21.56054824	     -4.91249761	      4.20000208	    165.71991631	    -66.76649830	    129.04610490	    108.12394143	     78.28291245	    173.94824402	    -73.37074950	    170.12100199	     92.69887760	    101.25337158
      1.35000000	     -6.25203689	      6.06803386	     -1.62909607	     -0.39708100	      1.07520122	     -0.58348516	     29.55715920	     -8.93573530	     -3.92437070	      9.94201210	      0.17352085	    -40.31147518	     -2.94068876	     -7.41885018	     36.66224334	     -0.65610531	     -4.13204756	     22.07293268	      0.38524535	    -33.75833731	     -5.29965881	     -7.41885018	    -21.15366042	     -4.52240071	      6.06956955	    176.95879366	    -65.97868202	    140.72245843	    110.04908359	     78.42725140	    177.11264731	    -72.51409483	    174.78338832	     95.25352638	    102.08059523
      1.36000000	     -6.10204080	      5.75120429	     -1.91654555	     -0.38371825	      1.05100466	     -0.58351607	     30.01614055	     -8.52284130	     -2.84348418	     11.32042151	      0.19757863	    -40.90953579	     -3.49159986	     -7.42901123	     36.70006111	     -1.01271045	     -3.36938054	     21.76811208	      0.37992523	    -34.58227302	     -5.83209567	     -7.42901123	    -19.92130600	     -3.86641729	      7.24429324	    179.06541220	    -64.75993781	    143.97660590	    110.18342180	     77.63229335	    178.15700597	    -72.14176593	    177.78111776	     96.87205656	    100.93612416
      1.37000000	     -5.93029570	      5.41109600	     -2.17917447	     -0.37047965	      1.02583698	     -0.58349137	     30.68819737	     -8.05746803	     -1.58574767	     13.06147467	      0.22796574	    -41.58572130	     -3.57768650	     -7.45300822	     36.97065039	     -1.43467433	     -2.85206141	     22.16745262	      0.38689503	    -34.90139492	     -6.00298410	     -7.45300822	    -18.59578820	     -3.14973666	      8.28142858	    179.48798338	    -63.78773724	    145.53619765	    110.03289607	     77.03180305	    178.39295486	    -72.13664692	    178.95152572	     97.80401007	    104.74537184
      1.38000000	     -5.79353456	      4.89073750	     -2.51082265	     -0.35745636	      0.99991662	     -0.58332755	     31.61179650	     -7.28909938	     -0.35414393	     15.43244666	      0.26934701	    -41.46848574	     -4.36482620	     -7.45888041	     37.48406226	     -2.07520614	     -2.41009138	     23.00597790	      0.40153006	    -35.73591582	     -5.99037105	     -7.45888041	    -17.28590904	     -2.21523923	      9.42813889	    179.65914169	    -63.04986831	    146.68878936	    109.81380767	     76.49690508	    178.25680691	    -72.60913232	    179.35679786	     99.51787107	    102.44140189
      1.39000000	     -6.04882242	      4.12713145	     -2.98190255	     -0.34522654	      0.97287404	     -0.58303233	     33.51382234	     -6.02672878	      0.61351500	     20.19272027	      0.35242945	    -36.87019963	     -8.20174510	     -7.46994837	     38.66379529	     -3.05033837	     -2.09238570	     24.35760660	      0.42512043	    -37.07828544	     -6.17552754	     -7.46994837	    -15.70865085	     -0.94536853	     10.70776333	    179.74173307	    -62.50509182	    147.46390725	    109.68394596	     78.14148046	    178.15415017	    -73.34972374	    179.49504339	    100.19398279	    111.23886028
      1.40000000	     -6.46059903	      3.64558772	     -3.36603379	     -0.33394705	      0.94485045	     -0.58321682	     36.63982649	     -5.03309490	      1.20911091	     28.85107718	      0.50354629	    -23.40819446	    -12.13518260	     -7.47841899	     40.34691800	     -3.64437857	     -1.88167138	     27.26926020	      0.47593838	    -35.09881307	     -7.65515909	     -7.47841899	    -14.14467922	      0.06525753	     11.79930647	    179.78953990	    -62.45122757	    147.75352088	    109.65550957	     78.73332070	    177.78403890	    -74.37487747	    179.58245362	    101.70222703	    113.04979421
      1.41000000	     -6.80428498	      3.46738665	     -3.47183770	     -0.32349230	      0.91614006	     -0.58409746	     40.26593283	     -4.39516946	      1.82249088	     39.09128237	      0.68227159	     -6.38184651	    -12.95871828	     -7.48340292	     42.75439544	     -3.75755376	     -1.82998600	     33.34795798	      0.58203167	    -26.15177154	    -11.09203648	     -7.48340292	    -12.83419776	      0.81380629	     12.47641955	    179.81735325	    -62.94129232	    147.28818479	    109.81009650	     78.32272969	    177.05098122	    -75.62507702	    179.63059494	    103.52432634	    112.21318402
      1.42000000	     -7.17799356	      2.85892699	     -3.57824477	     -0.31421519	      0.88783513	     -0.58520126	     43.54966436	     -3.19234844	      2.30574446	     47.44962266	      0.82815214	      5.34725306	    -14.06379060	     -7.48809155	     46.07911998	     -4.25216116	     -1.55753360	     41.91100253	      0.73148499	    -12.25088389	    -13.52166228	     -7.48809155	    -11.86503656	      2.20016018	     13.17644591	    179.83283072	    -63.67172643	    145.96719851	    110.17403776	     78.86023368	    175.72100550	    -77.73251309	    179.62581146	    105.24842772	    113.69803240
      1.43000000	     -8.72794979	      1.99525169	     -3.94081909	     -0.30505074	      0.86168962	     -0.58585712	     47.19940708	     -1.54694780	      2.64545797	     52.98558307	      0.92477288	     11.76826789	    -16.10651168	     -7.49769482	     50.53781134	     -5.13880540	     -1.11750536	     49.63425641	      0.86628120	     -1.00736026	    -14.66084608	     -7.49769482	    -21.84968446	     -2.74842799	     -7.86428680	    169.31128760	    -76.07575765	    125.37204314	    116.49756522	     73.89472923	     79.44313341	   -159.97284949	     78.49256208	    134.24430695	     89.33778186
      1.44000000	    -10.83104588	      1.46893427	     -4.46702422	     -0.29898029	      0.83516196	     -0.58680983	     51.88388746	     -0.26283866	      3.17427857	     58.27812950	      1.01714524	     15.45572641	    -17.71116563	     -7.49766450	     55.61857139	     -5.81043114	     -0.60560116	     55.97529608	      0.97695322	      5.13102373	    -16.56450055	     -7.49766450	    -20.38070570	     -2.22267517	     -7.16663903	    170.71873439	    -80.08058938	    125.42016611	    118.18987869	     74.50005882	     83.69793721	   -162.43843158	     82.91043925	    137.00950405	     90.54831920
      1.45000000	    -13.15939379	      1.32208185	     -4.83087375	     -0.29294227	      0.81120161	     -0.58771938	     57.08596220	      0.63981817	      3.90569141	     63.84797975	      1.11435747	     18.13201520	    -17.78168489	     -7.49894062	     60.44416321	     -6.21628067	     -0.10662128	     61.06702304	      1.06582062	     10.02241589	    -16.73236642	     -7.49894062	    -18.68223894	     -2.19294847	     -6.86417992	    158.24166335	    -85.53658389	    111.52771023	    119.57751176	     78.51334081	     88.54414592	   -164.73004294	     87.44994872	    139.18377844	     93.26221939
      1.46000000	    -14.62363168	      1.18451092	     -4.91765753	     -0.28616240	      0.79126279	     -0.58902524	     61.39365666	      1.35872483	      4.64496848	     69.44281360	      1.21200574	     19.30934665	    -18.25840725	     -7.50017036	     64.20118906	     -6.29024275	      0.66776038	     65.67699590	      1.14627982	     12.81144949	    -17.12586208	     -7.50017036	    -18.80167621	     -1.66567010	     -3.13857269	     94.10398363	    -96.22308923	     45.36506374	    124.51871644	     76.51847784	     95.44647922	   -161.71198262	     93.81389482	    141.36128359	     93.72636832
